<svg width="167" height="40" viewBox="0 0 167 40" fill="none" xmlns="http://www.w3.org/2000/svg">
<g clip-path="url(#clip0_90_9182)">
<path d="M166.659 26.2249H165.322V19.9526H157.919V26.2249H156.591L156.573 13.6621H157.919V19.2243L165.322 19.2425V13.6621H166.64L166.659 26.2249Z" fill="#1B1B18"/>
<path d="M147.342 26.2249L147.442 14.3267L143.514 14.5178V13.6621H152.571V14.5178L148.67 14.3267L148.761 26.2249H147.342Z" fill="#1B1B18"/>
<path d="M141.377 26.2066C139.19 27.0487 137.966 23.6729 137.321 22.2466C136.76 21.111 135.654 19.6339 134.147 19.6339V19.0331H134.548C136.053 19.0331 137.476 18.2465 137.476 16.5569C137.476 15.0388 136.476 14.2682 135.03 14.2447C134.502 14.2447 133.447 14.2902 133.447 14.2902L133.565 26.2248H132.129L132.11 13.662C132.11 13.662 133.947 13.6074 134.866 13.6074C136.673 13.6074 138.676 14.3728 138.676 16.4295C138.676 18.2071 137.418 19.2579 135.721 19.4154C136.969 19.8115 138 20.8927 138.549 22.0554C139.128 23.2376 139.908 25.6567 141.377 26.0245V26.2066Z" fill="#1B1B18"/>
<path d="M121.027 26.5061C120.088 26.5061 119.212 26.3513 118.399 26.0418C117.587 25.7262 116.88 25.2771 116.28 24.6945C115.668 24.1058 115.195 23.4018 114.862 22.5825C114.528 21.7632 114.361 20.8589 114.361 19.8697C114.361 18.4556 114.68 17.2479 115.316 16.2465C115.922 15.2937 116.741 14.5745 117.772 14.089C118.772 13.6156 119.878 13.3789 121.091 13.3789C122.031 13.3789 122.907 13.5367 123.719 13.8523C124.538 14.1618 125.247 14.6079 125.847 15.1905C126.453 15.7792 126.923 16.4832 127.257 17.3025C127.59 18.1218 127.757 19.0261 127.757 20.0153C127.757 21.4294 127.439 22.6371 126.802 23.6385C126.499 24.1119 126.138 24.5306 125.72 24.8948C125.308 25.2528 124.85 25.5533 124.347 25.796C123.856 26.0327 123.328 26.2087 122.764 26.324C122.2 26.4454 121.621 26.5061 121.027 26.5061ZM115.707 19.897C115.707 20.6981 115.829 21.4597 116.071 22.1819C116.32 22.9041 116.671 23.5353 117.126 24.0755C117.593 24.6338 118.148 25.0677 118.79 25.3773C119.439 25.6807 120.148 25.8324 120.918 25.8324C121.312 25.8324 121.718 25.7869 122.137 25.6959C122.555 25.6048 122.958 25.4683 123.346 25.2862C124.262 24.8553 124.977 24.2393 125.493 23.4382C126.105 22.4975 126.411 21.3475 126.411 19.988C126.411 19.1869 126.287 18.4283 126.038 17.7121C125.79 16.9899 125.438 16.3557 124.983 15.8095C124.516 15.2512 123.959 14.8203 123.31 14.5168C122.667 14.2073 121.961 14.0526 121.191 14.0526C120.336 14.0526 119.53 14.2316 118.772 14.5897C117.875 15.0145 117.162 15.6305 116.635 16.4377C116.016 17.3966 115.707 18.5497 115.707 19.897Z" fill="#1B1B18"/>
<path d="M109.229 26.2249L100.562 15.674L100.817 26.2249H99.7617V13.6621H100.462L109.147 24.3587L108.892 13.6621H109.947V26.2249H109.229Z" fill="#1B1B18"/>
<path d="M82.9362 26.2249L82.918 13.6621H88.3654V14.5178L84.2639 14.3267V19.1606L87.7742 19.0787V19.9253L84.2639 19.8434L84.3185 25.5694L88.4017 25.3691V26.2249H82.9362Z" fill="#1B1B18"/>
<path d="M72.4407 26.2795L67.2207 13.6621H68.8758L73.1774 24.9504L77.9518 13.6621H78.9976L73.3865 26.2795H72.4407Z" fill="#1B1B18"/>
<path d="M61.7949 13.6621H63.2136V26.2249H61.7949V13.6621Z" fill="#1B1B18"/>
<path d="M51.9307 13.6621H57.3781V14.5178L53.2675 14.3267V19.197L56.7778 19.1151V19.9617L53.2675 19.8798C53.2675 19.8798 53.2481 24.1131 53.3857 26.2249H51.9489L51.9307 13.6621Z" fill="#1B1B18"/>
<path fill-rule="evenodd" clip-rule="evenodd" d="M19.4378 6.34796V7.11992L19.1496 7.14618C19.0036 7.15945 18.8717 7.20175 18.7511 7.27536L32.5653 30.4662V7.77199L32.5576 7.75569L32.5241 7.68875V7.63446C32.5198 7.62477 32.511 7.60797 32.4949 7.58368L32.484 7.56725L32.4751 7.54947C32.4391 7.47723 32.4035 7.44205 32.3769 7.4242L32.3508 7.40669L32.3286 7.38446C32.3171 7.37301 32.296 7.35685 32.2613 7.33826C32.2268 7.31981 32.1789 7.29893 32.1139 7.27751L32.0535 7.25906C31.8953 7.2138 31.7058 7.18875 31.4814 7.18875H31.1645V6.34796H34.9296V7.14753H34.6127C34.2016 7.14753 33.9504 7.22323 33.8089 7.32506C33.6867 7.41302 33.6112 7.54531 33.6112 7.77886V31.7415C33.6112 31.8539 33.6274 31.9524 33.6568 32.0392C33.6797 32.0677 33.7012 32.0917 33.7213 32.112C33.737 32.1279 33.7518 32.1416 33.7655 32.1531L33.7768 32.1621L33.7786 32.1636L33.7809 32.1652L33.788 32.1706C33.8778 32.2162 33.9609 32.263 34.0371 32.3111C34.1104 32.3276 34.1478 32.3317 34.1595 32.3317H34.5589V33.1724H30.7936V32.3042L31.1369 32.3329L31.177 32.3352C31.3105 32.3393 31.4278 32.3063 31.5357 32.2275L17.8336 9.18578L17.7332 9.11803L17.7074 9.10092V17.361C22.5169 20.9224 22.297 28.2199 17.7105 31.8175C17.7257 31.9854 17.7934 32.0877 17.8995 32.1607C18.0421 32.2589 18.2958 32.3317 18.7088 32.3317H19.0258V33.1724H15.2605V33.1388C14.4543 33.4237 13.5797 33.5509 12.7279 33.5784C9.5054 33.6912 6.49271 31.8073 5.20588 28.8393C5.13255 28.6863 5.09864 28.5204 5.09863 28.3476C5.09863 28.0982 5.15288 27.8649 5.27787 27.6627C5.3477 27.5497 5.43559 27.4532 5.53824 27.3719C5.62005 27.3072 5.71116 27.2523 5.81005 27.2067L5.81409 27.2049L5.81799 27.2032C6.05455 27.1017 6.29932 27.0639 6.5426 27.1126C6.78534 27.1613 6.99809 27.2902 7.18123 27.4735L7.21487 27.5081C7.38009 27.6835 7.49624 27.8849 7.54171 28.1128C7.5904 28.3563 7.5526 28.6013 7.45129 28.838L7.44954 28.842L7.44766 28.8459C7.34472 29.0692 7.1948 29.253 6.99203 29.3787C6.97832 29.3871 6.96444 29.3953 6.95045 29.4032L6.94709 29.4051L6.92987 29.4144L6.92435 29.4173L6.91843 29.4204L6.91628 29.4215C6.89986 29.43 6.88331 29.438 6.86649 29.4456C6.81172 29.4705 6.75507 29.491 6.69681 29.5073C7.99727 31.5194 10.3077 32.6813 12.6965 32.5386C14.1473 32.4319 15.5554 31.8593 16.6614 30.9125V18.5179C16.5318 18.4125 16.3981 18.31 16.26 18.2107C16.0513 18.0605 15.8328 17.9174 15.6046 17.7813C14.5371 17.2089 13.4211 16.8846 12.254 16.8062C11.0583 16.7547 9.93164 16.9631 8.86956 17.4299C7.95038 17.8508 7.08366 18.3496 6.26917 18.9262L6.17121 19.0244L6.12519 19.0474L6.11026 19.0551L6.0999 19.0611L6.08833 19.0683L6.08335 19.0717L5.93412 19.2212L5.73699 19.1365C5.68802 19.1155 5.64239 19.0951 5.60122 19.0755C5.56005 19.0559 5.52316 19.037 5.49155 19.0189C5.46128 19.0016 5.42359 18.9781 5.38928 18.9487C5.37234 18.9342 5.34635 18.9099 5.32254 18.8758C5.31932 18.8713 5.3158 18.8661 5.31218 18.8601L5.31016 18.8567C5.30304 18.8451 5.29549 18.831 5.28836 18.8146C5.27343 18.7802 5.26092 18.7356 5.26091 18.6825V18.6533L5.26616 18.6245L7.54562 6.34473L19.4378 6.34796ZM17.7074 29.8028C19.9548 26.853 20.1354 22.4361 17.7074 19.5452V29.8028ZM16.6614 8.54206C15.8561 8.21387 15.0195 8.15696 14.0808 8.15696H8.31853C7.75558 11.2674 7.11401 14.3633 6.54933 17.4736C7.81931 16.6671 9.20085 16.0741 10.6924 15.6948L10.7058 15.6913L10.7194 15.6891C12.0465 15.4723 13.3619 15.5313 14.6627 15.8659L14.7885 15.899L14.7972 15.9014L14.8058 15.9043C15.3154 16.0743 15.8141 16.2762 16.3021 16.5099L16.5106 16.6118L16.5162 16.6148C16.5649 16.6404 16.6134 16.6665 16.6614 16.6928V8.54206Z" fill="#1B1B18"/>
<rect x="0.25" y="0.25" width="39.4591" height="39.5" stroke="#1B1B18" stroke-width="0.5"/>
</g>
<defs>
<clipPath id="clip0_90_9182">
<rect width="167" height="40" fill="white"/>
</clipPath>
</defs>
</svg>
